<?xml version="1.0" encoding="utf-8"?>
<!-- Generator: Adobe Illustrator 27.9.0, SVG Export Plug-In . SVG Version: 6.00 Build 0)  -->
<svg version="1.1" id="Layer_1" xmlns="http://www.w3.org/2000/svg" xmlns:xlink="http://www.w3.org/1999/xlink" x="0px" y="0px"
	 viewBox="0 0 1893.6 308.7" style="enable-background:new 0 0 1893.6 308.7;" xml:space="preserve">
<style type="text/css">
	.st0{fill:#00619B;}
</style>
<path class="st0" d="M833,3.3H709.7v299.8h55.7v-86.5H833c78.8,0,127.7-40.7,127.7-106.6S911.8,3.3,833,3.3L833,3.3z M830.5,169.5
	h-65.1V50.4h65.1c48.8,0,74.1,21.9,74.1,59.5S879.3,169.5,830.5,169.5L830.5,169.5z"/>
<path class="st0" d="M1276.3,3.3v169.2c0,87.4-49.3,134.9-131.1,134.9s-131.5-47.5-131.5-134.9V3.3h55.7v167
	c0,61.7,27.8,88.2,76.2,88.2s75.8-26.6,75.8-88.2V3.3H1276.3L1276.3,3.3z"/>
<path class="st0" d="M1541.5,204.6c40.7-15.8,63.8-49.3,63.8-94.6c0-66.4-48.8-106.7-127.6-106.7h-123.3v299.8h55.7v-87.4h67.7
	c3.9,0,7.7,0,11.6-0.4l61.2,87.8h60L1541.5,204.6L1541.5,204.6z M1475.1,169.9H1410V50.4h65.1c48.8,0,74.1,21.9,74.1,59.5
	S1523.9,169.9,1475.1,169.9z"/>
<path class="st0" d="M269,153.2h0.4v114.4c-28.3,25.3-68.6,38.1-110.1,38.1C68.1,305.7,1.3,241,1.3,153.2S68.1,0.7,159.7,0.7
	c45.4,0,84.8,14.6,111.4,43.3l-19.7,20.1C226.1,39.3,196.2,29,161,29C86.9,29,32.5,81.7,32.5,153.2s54.4,124.2,128.1,124.2
	c28.7,0,55.2-6.4,78.4-23.1v-72.6h-58.8v-29.1H269L269,153.2L269,153.2z"/>
<polygon class="st0" points="1892.2,256.4 1892.2,303.1 1667.4,303.1 1667.4,3.3 1886.2,3.3 1886.2,50 1723.1,50 1723.1,127.9 
	1867.8,127.9 1867.8,173.8 1723.1,173.8 1723.1,256.4 "/>
<path class="st0" d="M490,0.7c-90.8,0-157.6,65.1-157.6,152.5S399.2,305.7,490,305.7S647.2,241,647.2,153.2S579.9,0.7,490,0.7z
	 M490,277.4c-72.4,0-126.4-52.6-126.4-124.2S417.6,29,490,29s125.5,52.7,125.5,124.2S561.9,277.4,490,277.4z"/>
</svg>
